<?xml version="1.0" encoding="utf-8"?>
<!-- Generator: Adobe Illustrator 20.0.0, SVG Export Plug-In . SVG Version: 6.00 Build 0)  -->
<svg version="1.1" id="Layer_1" xmlns="http://www.w3.org/2000/svg" xmlns:xlink="http://www.w3.org/1999/xlink" x="0px" y="0px"
	 viewBox="0 0 144 144" style="enable-background:new 0 0 144 144;" xml:space="preserve">
<style type="text/css">
	.st0{fill:#C3E6E7;}
	.st1{opacity:0.75;}
	.st2{fill:#27BEC3;}
	.st3{fill:#FFFFFF;}
	.st4{fill:#3E4247;}
</style>
<title>Artboard 14cc-icon</title>
<rect class="st0" width="144" height="144"/>
<g class="st1">
	<polygon class="st2" points="44.2,107.5 44.2,57.2 73.2,38.2 102.3,57.2 102.3,107.5 	"/>
</g>
<rect x="52.2" y="79.9" class="st3" width="27.7" height="2"/>
<rect x="52.2" y="75.6" class="st3" width="27.7" height="2"/>
<rect x="52.2" y="84.2" class="st3" width="27.7" height="2"/>
<rect x="52.2" y="88.5" class="st3" width="27.7" height="2"/>
<rect x="52.2" y="92.8" class="st3" width="27.7" height="2"/>
<rect x="52.2" y="97.1" class="st3" width="27.7" height="2"/>
<rect x="52.2" y="101.3" class="st3" width="27.7" height="2"/>
<g class="st1">
	<path class="st4" d="M107.4,108.5H39V54.4l34.2-22.3l34.2,22.3L107.4,108.5z M41.1,106.5h64.3v-51l-32.2-21l-32.2,21L41.1,106.5z"
		/>
</g>
</svg>
