<?xml version="1.0" encoding="utf-8"?>
<!-- Generator: Adobe Illustrator 20.0.0, SVG Export Plug-In . SVG Version: 6.00 Build 0)  -->
<svg version="1.1" id="Layer_1" xmlns="http://www.w3.org/2000/svg" xmlns:xlink="http://www.w3.org/1999/xlink" x="0px" y="0px"
	 viewBox="0 0 144 144" style="enable-background:new 0 0 144 144;" xml:space="preserve">
<style type="text/css">
	.st0{fill:#C3E6E7;}
	.st1{opacity:0.75;}
	.st2{fill:#27BEC3;}
	.st3{fill:#2E3136;}
	.st4{opacity:0.75;fill:#2E3136;enable-background:new    ;}
</style>
<title>Artboard 20cc-icon</title>
<rect class="st0" width="144" height="144"/>
<g class="st1">
	<circle class="st2" cx="95.4" cy="92.2" r="4.7"/>
</g>
<g class="st1">
	<rect x="94.2" y="91.2" class="st3" width="2.3" height="2"/>
</g>
<g class="st1">
	<polygon class="st2" points="102.4,75.9 86.1,75.9 86.1,65.4 95.4,65.4 	"/>
</g>
<g class="st1">
	<rect x="64.9" y="82.3" class="st3" width="9.3" height="2"/>
</g>
<g class="st1">
	<path class="st2" d="M78.7,51.2H40.1V88H42c2.3-3.8,7.3-5.1,11.1-2.8c1.1,0.7,2.1,1.6,2.8,2.8h22.8V51.2z"/>
</g>
<path class="st4" d="M109.2,77.9L98.3,61H83.6V45.8H35.2v47.3h4.7c0.6,5,5.1,8.6,10.1,8.1c4.3-0.5,7.6-3.8,8.1-8.1h28.3
	c0.6,5,5.1,8.6,10.1,8.1c4.3-0.5,7.6-3.8,8.1-8.1h4.7V77.9z M48.9,99.3c-3.9,0-7.1-3.2-7.1-7.1c0-3.9,3.2-7.1,7.1-7.1
	s7.1,3.2,7.1,7.1l0,0C56.1,96.1,52.9,99.3,48.9,99.3z M81.6,61v30.2H58c-0.6-5-5.1-8.6-10.1-8.1c-4.3,0.5-7.6,3.8-8.1,8.1h-2.7V47.8
	h44.5V61z M95.4,99.3c-3.9,0-7.1-3.2-7.1-7.1s3.2-7.1,7.1-7.1s7.1,3.2,7.1,7.1v0C102.5,96.1,99.3,99.3,95.4,99.3z M107.2,91.2h-2.7
	c-0.6-5-5.1-8.6-10.1-8.1c-4.3,0.5-7.6,3.8-8.1,8.1h-2.7V63h13.5l9.9,15.4h-2.4v2h2.5L107.2,91.2z"/>
<g class="st1">
	<circle class="st2" cx="48.9" cy="92.2" r="4.7"/>
</g>
<g class="st1">
	<rect x="47.8" y="91.2" class="st3" width="2.3" height="2"/>
</g>
</svg>
