<?xml version="1.0" encoding="utf-8"?>
<!-- Generator: Adobe Illustrator 20.0.0, SVG Export Plug-In . SVG Version: 6.00 Build 0)  -->
<svg version="1.1" id="Layer_1" xmlns="http://www.w3.org/2000/svg" xmlns:xlink="http://www.w3.org/1999/xlink" x="0px" y="0px"
	 viewBox="0 0 144 144" style="enable-background:new 0 0 144 144;" xml:space="preserve">
<style type="text/css">
	.st0{fill:#C3E6E7;}
	.st1{opacity:0.75;fill:#2E3136;enable-background:new    ;}
	.st2{opacity:0.75;}
	.st3{fill:#27BEC3;}
	.st4{fill:#FFFFFF;}
</style>
<title>Artboard 15cc-icon</title>
<rect class="st0" width="144" height="144"/>
<path class="st1" d="M104.1,33.8H49.6v4h-4v4h-4v70.3h54.5v-4h4v-4h4L104.1,33.8z M94.1,110.1H43.6V43.8h2v64.3h48.5L94.1,110.1z
	 M98.1,106.1H47.6V39.8h2v64.3h48.5L98.1,106.1z M102.1,102.1H51.6V35.8h50.5L102.1,102.1z"/>
<g class="st2">
	<rect x="54.6" y="40" class="st3" width="44.5" height="58.9"/>
</g>
<g class="st2">
	<rect x="59.8" y="65.7" class="st4" width="35" height="2"/>
</g>
<g class="st2">
	<rect x="59.3" y="57" class="st4" width="18" height="2"/>
</g>
<g class="st2">
	<rect x="59.8" y="70.2" class="st4" width="35" height="2"/>
</g>
<g class="st2">
	<rect x="59.8" y="74.7" class="st4" width="35" height="2"/>
</g>
<g class="st2">
	<rect x="59.8" y="79.2" class="st4" width="35" height="2"/>
</g>
<g class="st2">
	<rect x="59.8" y="83.7" class="st4" width="35" height="2"/>
</g>
<g class="st2">
	<rect x="59.8" y="88.2" class="st4" width="35" height="2"/>
</g>
</svg>
