<?xml version="1.0" encoding="utf-8"?>
<!-- Generator: Adobe Illustrator 20.0.0, SVG Export Plug-In . SVG Version: 6.00 Build 0)  -->
<svg version="1.1" id="Layer_1" xmlns="http://www.w3.org/2000/svg" xmlns:xlink="http://www.w3.org/1999/xlink" x="0px" y="0px"
	 viewBox="0 0 144 144" style="enable-background:new 0 0 144 144;" xml:space="preserve">
<style type="text/css">
	.st0{fill:#C3E6E7;}
	.st1{opacity:0.75;}
	.st2{fill:#27BEC3;}
	.st3{opacity:0.75;fill:#2E3136;enable-background:new    ;}
	.st4{fill:#FFFFFF;}
</style>
<title>Artboard 16cc-icon</title>
<rect class="st0" width="144" height="144"/>
<g class="st1">
	<path class="st2" d="M59.1,50.5c0-9.6,4.6-14.2,14.2-14.2s14.2,4.6,14.2,14.2l-6.3,3.2l-7.9-3.2l-7.9-3.2L59.1,50.5z"/>
</g>
<g class="st1">
	<path class="st2" d="M81.8,86.2c9.6,3.8,21.6,3.9,21.6,13.5v1.9H43.2v-1.9c0-9.6,11.9-9.8,21.4-13.6l2.3,2.3l6.3-3.2l6.3,3.2
		L81.8,86.2z"/>
</g>
<path class="st3" d="M95,85c-2.9-1-5.6-2.2-8.3-3.7l-3.4-5.1l-1,0.2v-4.8c1.3-1.1,5-5.1,6.3-14.6v-6.5c0-10.1-5.1-15.3-15.3-15.3
	s-15.3,5.1-15.3,15.3V57c1.4,9.5,5,13.4,6.3,14.6v4.8l-1-0.2L60,81.3c-2.7,1.4-5.5,2.7-8.3,3.7c-7.6,2.9-14.1,5.4-14.1,17.7v4.2
	h71.6v-4.2C109.2,90.4,102.6,87.9,95,85z M73.3,37.3c8.8,0,13,4,13.2,12.5l-5.3,2.7l-15.8-6.3l-5.2,2.6C60.8,41,65,37.3,73.3,37.3z
	 M60.2,56.8v-5.6l5.3-2.7l15.8,6.3l5.2-2.6v4.5c-1.4,9.8-5.4,13.1-5.8,13.4c-4.7,1.9-10,1.9-14.7,0C65.5,69.8,61.6,66.5,60.2,56.8z
	 M80.2,72.6v4.1l-6.8,1.2l-6.8-1.1v-4.2C70.9,74,75.7,74,80.2,72.6L80.2,72.6z M64.4,78.5l9,1.5l9-1.5l2.3,3.5l-5.2,5.2l-6.1-3.1
	l-6.1,3.1L62,82L64.4,78.5z M107.1,104.8H39.6v-2.1c0-10.8,5.4-12.9,12.8-15.7c2.8-1,5.5-2.2,8.1-3.6l6.3,6.3l6.5-3.3l6.5,3.3
	l6.3-6.3c2.6,1.4,5.3,2.6,8.1,3.6c7.4,2.8,12.8,4.8,12.8,15.7V104.8z"/>
<g class="st1">
	<rect x="71.4" y="91.7" class="st4" width="2.4" height="2.1"/>
</g>
<g class="st1">
	<rect x="71.4" y="97.1" class="st4" width="2.4" height="2.1"/>
</g>
</svg>
