<?xml version="1.0" encoding="utf-8"?>
<!-- Generator: Adobe Illustrator 20.0.0, SVG Export Plug-In . SVG Version: 6.00 Build 0)  -->
<svg version="1.1" id="Layer_1" xmlns="http://www.w3.org/2000/svg" xmlns:xlink="http://www.w3.org/1999/xlink" x="0px" y="0px"
	 viewBox="0 0 144 144" style="enable-background:new 0 0 144 144;" xml:space="preserve">
<style type="text/css">
	.st0{fill:#C3E6E7;}
	.st1{opacity:0.75;fill:#2E3136;enable-background:new    ;}
	.st2{opacity:0.75;fill:#27BEC3;enable-background:new    ;}
</style>
<title>Artboard 21cc-icon</title>
<rect class="st0" width="144" height="144"/>
<path class="st1" d="M106.8,50.3v-0.1c-0.4-2.2-2.1-3.9-4.3-4.3h-0.1L81,47c-1.2-0.2-2.4,0.2-3.2,1l-4,0.2c-1.2-0.2-2.3,0.2-3.2,1
	l-4,0.2c-1.3-0.2-2.5,0.2-3.4,1.1L37.4,76.3c-1.5,1.5-1.5,4,0,5.6L58.5,103c1.6,1.6,4.3,1.6,5.9,0l1.2-1.2l0,0
	c1.6,1.6,4.3,1.6,5.9,0c0,0,0,0,0,0l1.2-1.2l0.1,0.1c1.6,1.6,4.3,1.6,5.9,0c0,0,0,0,0,0l25.8-25.8c0.8-0.8,1.2-2,1.1-3.2L106.8,50.3
	z M63,101.6c-0.9,0.8-2.2,0.8-3.1,0L38.8,80.4c-0.8-0.8-0.8-2,0-2.7l25.8-25.8c0.5-0.5,1.1-0.7,1.8-0.6h0.1l1.9-0.1L44.6,75.1
	c-1.5,1.5-1.5,4,0,5.6l19.7,19.7L63,101.6z M70.2,100.4c-0.9,0.8-2.2,0.8-3.1,0L46,79.3c-0.8-0.8-0.8-2,0-2.7l25.8-25.8
	c0.5-0.5,1.1-0.7,1.8-0.6h0.1l1.9-0.1L51.8,73.9c-1.5,1.5-1.5,4,0,5.6l19.7,19.7L70.2,100.4z M103.6,71.8V72
	c0.1,0.6-0.1,1.2-0.5,1.6L77.4,99.2c-0.9,0.8-2.2,0.8-3.1,0L53.2,78.1c-0.8-0.8-0.8-2,0-2.7l25.4-25.4h0.1v-0.1l0.3-0.3
	c0.4-0.4,0.9-0.6,1.4-0.6c0.1,0,0.2,0,0.3,0h0.1l21.3-1.1c1.3,0.3,2.3,1.3,2.6,2.5L103.6,71.8z"/>
<path class="st2" d="M81.2,53.1L57.6,76.7L75.9,95l23.7-23.7l1-19.3L81.2,53.1z M94.9,64.8c-2,1.9-5.1,1.9-7.1,0
	c-1.9-2-1.9-5.1,0-7.1c1.9-1.9,5.1-1.9,7,0C96.8,59.7,96.9,62.8,94.9,64.8C94.9,64.8,94.9,64.8,94.9,64.8z"/>
</svg>
