<?xml version="1.0" encoding="utf-8"?>
<!-- Generator: Adobe Illustrator 20.0.0, SVG Export Plug-In . SVG Version: 6.00 Build 0)  -->
<svg version="1.1" id="Layer_1" xmlns="http://www.w3.org/2000/svg" xmlns:xlink="http://www.w3.org/1999/xlink" x="0px" y="0px"
	 viewBox="0 0 144 144" style="enable-background:new 0 0 144 144;" xml:space="preserve">
<style type="text/css">
	.st0{fill:#C3E6E7;}
	.st1{opacity:0.75;fill:#2E3136;enable-background:new    ;}
	.st2{opacity:0.75;}
	.st3{fill:#27BEC3;}
</style>
<title>Artboard 19cc-icon</title>
<rect class="st0" width="144" height="144"/>
<path class="st1" d="M99.2,92c-0.2,0-0.3,0-0.5,0.1V92H52.2l-0.8-3.8h50.3l6.9-30.2l-65.4-8.4L41.1,39h-7.6v2.1h5.9l11.2,53
	c-2.3,2-2.6,5.5-0.6,7.8c2,2.3,5.5,2.6,7.8,0.6c2.3-2,2.6-5.5,0.6-7.8c-0.2-0.2-0.4-0.4-0.6-0.6h37.2c-0.8,1-1.2,2.2-1.2,3.4
	c0,3,2.5,5.5,5.5,5.5s5.5-2.5,5.5-5.5S102.2,91.9,99.2,92L99.2,92z M106.2,59.7l-6.1,26.4H51.4l-7.2-34.3L106.2,59.7z M54.2,101.7
	c-1.9,0-3.4-1.5-3.4-3.4s1.5-3.4,3.4-3.4c1.9,0,3.4,1.5,3.4,3.4C57.5,100.2,56,101.7,54.2,101.7L54.2,101.7z M99.2,100.9
	c-1.9,0-3.4-1.5-3.4-3.4s1.5-3.4,3.4-3.4c1.9,0,3.4,1.5,3.4,3.4C102.5,99.4,101,100.9,99.2,100.9L99.2,100.9z"/>
<g class="st2">
	<polygon class="st3" points="102.7,62.5 47.9,55.4 52.6,78.8 99.1,78.8 	"/>
</g>
<g class="st2">
	<polygon class="st3" points="53.5,83.3 98.1,83.3 98.7,80.9 53,80.9 	"/>
</g>
</svg>
