<?xml version="1.0" encoding="utf-8"?>
<!-- Generator: Adobe Illustrator 20.0.0, SVG Export Plug-In . SVG Version: 6.00 Build 0)  -->
<svg version="1.1" id="Layer_1" xmlns="http://www.w3.org/2000/svg" xmlns:xlink="http://www.w3.org/1999/xlink" x="0px" y="0px"
	 viewBox="0 0 144 144" style="enable-background:new 0 0 144 144;" xml:space="preserve">
<style type="text/css">
	.st0{fill:#C3E6E7;}
	.st1{opacity:0.75;}
	.st2{fill:#231F20;}
	.st3{fill:#27BEC3;}
</style>
<title>Artboard 22cc-icon</title>
<rect class="st0" width="144" height="144"/>
<g class="st1">
	<path class="st2" d="M77.3,103.8L72,99.3l-5.3,4.5L63,97.9l-6.5,2.7l-1.6-6.8l-7,0.5l0.5-7l-6.8-1.6l2.7-6.4l-5.9-3.6l4.5-5.3
		L38.5,65l5.9-3.7l-2.7-6.5l6.8-1.6l-0.5-7l7,0.5l1.6-6.8l6.4,2.7l3.7-5.9l5.3,4.5l5.3-4.5l3.7,5.9l6.4-2.7l1.6,6.8l7-0.5l-0.5,7
		l6.8,1.6l-2.7,6.5l5.9,3.7l-4.6,5.3l4.5,5.3l-5.9,3.7l2.7,6.4l-6.8,1.6l0.5,7l-7-0.5l-1.6,6.8L81,97.9L77.3,103.8z M63.8,95.4
		l3.3,5.4l4.8-4.1l4.8,4.1l3.3-5.4l5.8,2.4l1.5-6.2l6.3,0.5l-0.5-6.3l6.2-1.5l-2.4-5.9l5.4-3.3l-4.1-4.8l4.1-4.8l-5.4-3.3l2.4-5.9
		l-6.2-1.5l0.5-6.3L87.5,49L86,42.8l-5.9,2.4l-3.3-5.4L72,43.9l-4.8-4.1l-3.3,5.4L58,42.8l-1.5,6.2l-6.3-0.5l0.5,6.3l-6.2,1.5
		l2.4,5.9l-5.4,3.3l4.1,4.8l-4.1,4.8l5.4,3.3l-2.4,5.9l6.2,1.5l-0.5,6.3l6.3-0.5l1.5,6.2L63.8,95.4z"/>
</g>
<g class="st1">
	<path class="st3" d="M95.1,70.3l3.6-4.2L94,63.2l2.1-5.2l-5.4-1.3l0.4-5.5l-5.5,0.4l-1.3-5.4l-5.1,2.1l-2.9-4.7L72,47.2l-4.2-3.6
		l-2.9,4.7l-5.1-2.1l-1.3,5.4l-5.5-0.4l0.4,5.5L47.9,58l2.1,5.2l-4.7,2.9l3.6,4.2l-3.6,4.2l4.7,2.9l-2.1,5.1l5.4,1.3l-0.4,5.5
		l5.6-0.4l1.3,5.4l5.1-2.1l2.9,4.7l4.2-3.6l4.2,3.6l2.9-4.7l5.1,2.1l1.3-5.4l5.5,0.4l-0.4-5.5l5.4-1.3L94,77.4l4.7-2.9L95.1,70.3z
		 M64.7,78.6h-2.8l-3.4-12.7v12.7H56V61.1h3.5l2.8,10.5V61.1h2.5L64.7,78.6z M74.2,63.6h-4.8v4.9h3.8V71h-3.8v5.1h4.8v2.5h-7.5V61.1
		h7.5V63.6z M86.7,78.6H83l-1-9.3l-1,9.3h-3.8l-2-17.5H78l1.4,13.8l1.3-13.8h2.7L84.8,75l1.4-13.9h2.4L86.7,78.6z"/>
</g>
</svg>
