<?xml version="1.0" encoding="utf-8"?>
<!-- Generator: Adobe Illustrator 20.0.0, SVG Export Plug-In . SVG Version: 6.00 Build 0)  -->
<svg version="1.1" id="Layer_1" xmlns="http://www.w3.org/2000/svg" xmlns:xlink="http://www.w3.org/1999/xlink" x="0px" y="0px"
	 viewBox="0 0 144 144" style="enable-background:new 0 0 144 144;" xml:space="preserve">
<style type="text/css">
	.st0{fill:#C3E6E7;}
	.st1{opacity:0.75;}
	.st2{fill:#2E3136;}
	.st3{fill:#27BEC3;}
</style>
<title>Artboard 18cc-icon</title>
<rect class="st0" width="144" height="144"/>
<g class="st1">
	<path class="st2" d="M62.1,112.2h-9.7v-39c-4.3-1.9-7-6.2-7-10.8V39.1h2.3v23.3c0,4,2.5,7.6,6.3,9l0.8,0.3V110h5.1V71.6l0.8-0.3
		c3.8-1.4,6.3-5,6.3-9V39h2.3v23.4c0,4.7-2.8,8.9-7.1,10.8V112.2z"/>
</g>
<g class="st1">
	<path class="st2" d="M91.9,112.2h-9.7v-39c-4.3-1.9-7-6.2-7.1-10.8v-15c0-6.6,5.3-11.9,11.9-11.9c6.6,0,11.9,5.3,11.9,11.9v15
		c0,4.7-2.8,8.9-7.1,10.8L91.9,112.2z M84.5,109.9h5.1V71.6l0.8-0.3c3.8-1.4,6.3-5,6.3-9v-15c0-5.3-4.3-9.6-9.6-9.6
		s-9.6,4.3-9.6,9.6v15c0,4,2.5,7.6,6.3,9l0.8,0.3L84.5,109.9z"/>
</g>
<g class="st1">
	<path class="st3" d="M85.1,67.8c-2.3-0.8-3.8-3-3.8-5.4v-15c0-3.2,2.6-5.8,5.8-5.8c3.2,0,5.8,2.6,5.8,5.8l0,0v15
		c0,2.4-1.5,4.6-3.8,5.4l-2,0.7L85.1,67.8z"/>
</g>
<g class="st1">
	<rect x="52.4" y="39" class="st2" width="2.3" height="28.2"/>
</g>
<g class="st1">
	<rect x="59.8" y="39" class="st2" width="2.3" height="28.2"/>
</g>
</svg>
