<?xml version="1.0" encoding="utf-8"?>
<!-- Generator: Adobe Illustrator 20.0.0, SVG Export Plug-In . SVG Version: 6.00 Build 0)  -->
<svg version="1.1" id="Layer_1" xmlns="http://www.w3.org/2000/svg" xmlns:xlink="http://www.w3.org/1999/xlink" x="0px" y="0px"
	 viewBox="0 0 734.7 78.5" style="enable-background:new 0 0 734.7 78.5;" xml:space="preserve">
<style type="text/css">
	.st0{fill:#25BDC2;}
	.st1{fill:#3E3F3F;}
	.st2{fill:#231F20;}
	.st3{fill:#6D6E71;}
	.st4{fill:#FFFFFF;}
	.st5{fill:none;stroke:#25BDC2;stroke-width:5;stroke-miterlimit:10;}
	.st6{fill:#808285;}
	.st7{fill:none;stroke:#25BDC2;stroke-width:8;stroke-miterlimit:10;}
	.st8{fill:#A7A9AC;}
	.st9{fill:#939598;}
	.st10{fill:none;stroke:#939598;stroke-width:4;stroke-miterlimit:10;}
	.st11{fill:none;stroke:#231F20;stroke-miterlimit:10;}
	.st12{fill:#E6E7E8;}
</style>
<g>
	<path class="st4" d="M38,78.5c-5.5,0-10.5-1-15.1-3c-4.6-2-8.6-4.7-12-8.2c-3.4-3.5-6-7.5-7.9-12.2S0,45.4,0,40.1v-0.2
		c0-5.3,0.9-10.3,2.8-15c1.9-4.7,4.5-8.7,7.9-12.3c3.4-3.5,7.5-6.3,12.2-8.3c4.7-2,9.9-3,15.6-3c3.4,0,6.5,0.3,9.3,0.9
		c2.8,0.6,5.4,1.4,7.7,2.4c2.3,1,4.5,2.2,6.5,3.7c2,1.4,3.9,3,5.6,4.6l-8.4,9.7c-3-2.8-6.1-5-9.5-6.7c-3.3-1.7-7.1-2.6-11.4-2.6
		c-3.6,0-6.8,0.7-9.9,2.1c-3,1.4-5.6,3.3-7.8,5.7c-2.2,2.4-3.9,5.2-5.1,8.4c-1.2,3.2-1.9,6.6-1.9,10.3v0.2c0,3.6,0.6,7.1,1.8,10.3
		c1.2,3.2,2.9,6.1,5.1,8.4c2.2,2.4,4.8,4.3,7.8,5.7c3,1.4,6.3,2.1,9.9,2.1c4.6,0,8.5-0.9,11.7-2.6c3.3-1.7,6.5-4.1,9.7-7l8.4,8.5
		c-1.9,2.1-3.9,3.9-6,5.5c-2.1,1.6-4.3,3-6.8,4.2c-2.4,1.2-5.1,2.1-7.9,2.7C44.6,78.2,41.4,78.5,38,78.5z"/>
	<path class="st4" d="M96.7,78.4c-2.6,0-5.2-0.4-7.6-1.1c-2.4-0.7-4.5-1.9-6.4-3.3c-1.8-1.5-3.3-3.3-4.4-5.4
		c-1.1-2.2-1.7-4.7-1.7-7.5v-0.2c0-3,0.6-5.7,1.7-8c1.1-2.3,2.7-4.2,4.8-5.6c2-1.5,4.5-2.6,7.4-3.4c2.9-0.7,6-1.1,9.4-1.1
		c3.2,0,6,0.2,8.3,0.6c2.3,0.4,4.6,1,6.8,1.7v-1.4c0-4.1-1.2-7.1-3.6-9.2c-2.4-2.1-5.8-3.1-10.4-3.1c-3.2,0-6,0.3-8.5,1
		c-2.5,0.6-5,1.5-7.6,2.6l-3.4-10.1c3.1-1.4,6.3-2.5,9.6-3.4c3.3-0.8,7.1-1.2,11.6-1.2c8.4,0,14.6,2.1,18.7,6.3
		c2.1,2.1,3.6,4.6,4.6,7.5s1.5,6.2,1.5,9.9v33.4h-12.6v-7c-1.9,2.3-4.4,4.2-7.3,5.8C104.7,77.6,101,78.4,96.7,78.4z M100.3,69
		c2.1,0,4.1-0.3,6-0.9c1.8-0.6,3.4-1.4,4.7-2.4c1.3-1.1,2.4-2.4,3.1-3.8c0.8-1.5,1.2-3.1,1.2-4.9v-3.8c-1.6-0.6-3.5-1.2-5.7-1.6
		c-2.2-0.4-4.5-0.6-7.1-0.6c-4.2,0-7.4,0.8-9.8,2.4c-2.3,1.6-3.5,3.9-3.5,6.9v0.2c0,2.7,1,4.8,3.1,6.3C94.6,68.2,97.2,69,100.3,69z"
		/>
	<path class="st4" d="M143.1,20.9H156v12.7c1.8-4.3,4.3-7.7,7.6-10.2c3.3-2.6,7.4-3.7,12.4-3.5v13.6h-0.7c-2.8,0-5.4,0.5-7.8,1.4
		c-2.4,0.9-4.4,2.3-6.1,4.2c-1.7,1.8-3,4.2-3.9,7c-0.9,2.8-1.4,6.1-1.4,9.8v21.4h-12.9V20.9z"/>
	<path class="st4" d="M211.1,78.5c-4.1,0-7.8-0.7-11.4-2.1c-3.5-1.4-6.6-3.4-9.2-6c-2.6-2.6-4.7-5.6-6.2-9.2
		c-1.5-3.6-2.3-7.6-2.3-11.9v-0.2c0-4.1,0.7-7.9,2-11.4c1.4-3.6,3.3-6.7,5.7-9.3c2.5-2.7,5.4-4.8,8.7-6.3c3.3-1.5,7.1-2.3,11.1-2.3
		c4.5,0,8.4,0.8,11.8,2.5c3.4,1.6,6.2,3.8,8.4,6.6c2.2,2.8,3.9,6,5.1,9.6c1.1,3.7,1.7,7.5,1.7,11.6c0,0.6,0,1.2-0.1,1.8
		c0,0.6-0.1,1.2-0.2,1.9h-41.4c0.7,4.6,2.5,8.2,5.5,10.6c2.9,2.5,6.5,3.7,10.7,3.7c3.2,0,6-0.6,8.3-1.7c2.3-1.1,4.7-2.8,6.9-5
		l7.6,6.7c-2.7,3.2-5.9,5.8-9.6,7.7C220.8,77.5,216.3,78.5,211.1,78.5z M223.8,45.1c-0.2-2.1-0.7-4-1.4-5.8
		c-0.7-1.8-1.7-3.4-2.9-4.7c-1.2-1.3-2.6-2.4-4.3-3.1c-1.7-0.8-3.6-1.2-5.7-1.2c-4,0-7.2,1.4-9.8,4.1c-2.6,2.7-4.2,6.3-4.7,10.7
		H223.8z"/>
	<path class="st4" d="M275.5,78.5c-4,0-7.8-0.7-11.4-2.1c-3.5-1.4-6.6-3.4-9.2-6c-2.6-2.6-4.7-5.6-6.2-9.2
		c-1.5-3.6-2.3-7.6-2.3-11.9v-0.2c0-4.1,0.7-7.9,2-11.4c1.4-3.6,3.3-6.7,5.7-9.3c2.5-2.7,5.4-4.8,8.7-6.3c3.4-1.5,7.1-2.3,11.1-2.3
		c4.5,0,8.4,0.8,11.8,2.5c3.4,1.6,6.2,3.8,8.4,6.6c2.2,2.8,3.9,6,5.1,9.6c1.1,3.7,1.7,7.5,1.7,11.6c0,0.6,0,1.2,0,1.8
		c0,0.6-0.1,1.2-0.2,1.9h-41.4c0.7,4.6,2.5,8.2,5.5,10.6c2.9,2.5,6.5,3.7,10.7,3.7c3.2,0,6-0.6,8.3-1.7c2.3-1.1,4.7-2.8,6.9-5
		l7.6,6.7c-2.7,3.2-5.9,5.8-9.7,7.7C285.2,77.5,280.7,78.5,275.5,78.5z M288.2,45.1c-0.2-2.1-0.7-4-1.4-5.8
		c-0.7-1.8-1.7-3.4-2.9-4.7c-1.2-1.3-2.6-2.4-4.3-3.1c-1.7-0.8-3.6-1.2-5.7-1.2c-4,0-7.2,1.4-9.8,4.1c-2.6,2.7-4.2,6.3-4.7,10.7
		H288.2z"/>
	<path class="st4" d="M314,20.9h12.9v12.7c1.8-4.3,4.3-7.7,7.6-10.2c3.3-2.6,7.4-3.7,12.4-3.5v13.6h-0.7c-2.8,0-5.4,0.5-7.8,1.4
		c-2.3,0.9-4.4,2.3-6.1,4.2c-1.7,1.8-3,4.2-3.9,7c-0.9,2.8-1.4,6.1-1.4,9.8v21.4H314V20.9z"/>
	<path class="st4" d="M394.2,78.5c-5.5,0-10.5-1-15.2-3c-4.6-2-8.6-4.7-12-8.2c-3.4-3.5-6-7.5-7.9-12.2c-1.9-4.7-2.9-9.7-2.9-15
		v-0.2c0-5.3,0.9-10.3,2.8-15c1.9-4.7,4.5-8.7,7.9-12.3c3.4-3.5,7.5-6.3,12.2-8.3c4.7-2,9.9-3,15.6-3c3.4,0,6.5,0.3,9.3,0.9
		c2.8,0.6,5.4,1.4,7.7,2.4c2.3,1,4.5,2.2,6.5,3.7c2,1.4,3.9,3,5.7,4.6l-8.4,9.7c-3-2.8-6.1-5-9.5-6.7c-3.3-1.7-7.1-2.6-11.4-2.6
		c-3.5,0-6.8,0.7-9.9,2.1c-3,1.4-5.6,3.3-7.8,5.7c-2.2,2.4-3.9,5.2-5.1,8.4c-1.3,3.2-1.9,6.6-1.9,10.3v0.2c0,3.6,0.6,7.1,1.8,10.3
		c1.2,3.2,2.9,6.1,5.1,8.4c2.2,2.4,4.8,4.3,7.8,5.7c3,1.4,6.3,2.1,9.9,2.1c4.6,0,8.5-0.9,11.7-2.6c3.3-1.7,6.5-4.1,9.7-7l8.4,8.5
		c-1.9,2.1-3.9,3.9-6,5.5c-2.1,1.6-4.3,3-6.8,4.2c-2.4,1.2-5.1,2.1-7.9,2.7C400.9,78.2,397.7,78.5,394.2,78.5z"/>
	<path class="st4" d="M462.7,78.5c-4,0-7.8-0.7-11.4-2.1c-3.5-1.4-6.6-3.4-9.2-6c-2.6-2.6-4.7-5.6-6.2-9.2
		c-1.5-3.6-2.3-7.6-2.3-11.9v-0.2c0-4.1,0.7-7.9,2-11.4c1.4-3.6,3.3-6.7,5.7-9.3c2.5-2.7,5.4-4.8,8.7-6.3c3.4-1.5,7.1-2.3,11.1-2.3
		c4.5,0,8.4,0.8,11.8,2.5c3.4,1.6,6.2,3.8,8.4,6.6c2.2,2.8,3.9,6,5.1,9.6c1.1,3.7,1.7,7.5,1.7,11.6c0,0.6,0,1.2,0,1.8
		c0,0.6-0.1,1.2-0.2,1.9h-41.4c0.7,4.6,2.5,8.2,5.5,10.6c2.9,2.5,6.5,3.7,10.7,3.7c3.2,0,6-0.6,8.3-1.7c2.3-1.1,4.7-2.8,6.9-5
		l7.6,6.7c-2.7,3.2-5.9,5.8-9.7,7.7C472.3,77.5,467.9,78.5,462.7,78.5z M475.4,45.1c-0.2-2.1-0.7-4-1.4-5.8
		c-0.7-1.8-1.7-3.4-2.9-4.7c-1.2-1.3-2.6-2.4-4.3-3.1c-1.7-0.8-3.6-1.2-5.7-1.2c-4,0-7.2,1.4-9.8,4.1c-2.6,2.7-4.2,6.3-4.7,10.7
		H475.4z"/>
	<path class="st4" d="M501.2,20.9h12.9v8.6c0.9-1.3,1.9-2.5,3-3.7c1.1-1.2,2.4-2.3,3.8-3.1c1.5-0.9,3.1-1.6,4.8-2.1
		c1.7-0.5,3.7-0.8,5.9-0.8c6.4,0,11.3,2,14.8,5.9c3.5,3.9,5.2,9.1,5.2,15.7v35.9h-12.9v-32c0-4.4-1.1-7.8-3.1-10.2
		c-2.1-2.4-5.1-3.6-8.9-3.6c-3.8,0-6.8,1.2-9.2,3.7c-2.3,2.5-3.5,5.9-3.5,10.3v31.8h-12.9V20.9z"/>
	<path class="st4" d="M586.2,78.2c-2.3,0-4.5-0.3-6.5-0.9c-2-0.6-3.7-1.5-5.2-2.8c-1.5-1.3-2.6-3-3.4-5.1c-0.8-2.1-1.2-4.7-1.2-7.8
		V32h-7.1V20.9h7.1V5.4h12.9v15.5H598V32h-15.1v27.6c0,2.5,0.6,4.3,1.8,5.4c1.2,1.1,2.9,1.7,5.1,1.7c2.8,0,5.4-0.6,8-1.9v10.6
		c-1.6,0.9-3.4,1.6-5.2,2.1C590.8,77.9,588.7,78.2,586.2,78.2z"/>
	<path class="st4" d="M611.1,20.9H624v12.7c1.8-4.3,4.3-7.7,7.6-10.2c3.3-2.6,7.4-3.7,12.4-3.5v13.6h-0.8c-2.8,0-5.4,0.5-7.8,1.4
		c-2.3,0.9-4.4,2.3-6.1,4.2c-1.7,1.8-3,4.2-3.9,7c-0.9,2.8-1.4,6.1-1.4,9.8v21.4h-12.9V20.9z"/>
	<path class="st4" d="M655.4,0h13.9v12.3h-13.9V0z M655.9,20.9h12.9v56.3h-12.9V20.9z"/>
	<path class="st4" d="M711.7,78.5c-4.2,0-8.1-0.8-11.6-2.3c-3.6-1.5-6.6-3.6-9.2-6.2c-2.6-2.6-4.6-5.7-6.1-9.3
		c-1.5-3.6-2.2-7.3-2.2-11.3v-0.2c0-4,0.7-7.8,2.2-11.4c1.5-3.6,3.5-6.7,6.1-9.4c2.6-2.7,5.7-4.8,9.3-6.3c3.6-1.6,7.5-2.4,11.7-2.4
		c2.6,0,5,0.2,7.2,0.7c2.2,0.5,4.2,1.1,6,2c1.8,0.9,3.5,1.9,5,3.1c1.5,1.2,3,2.5,4.3,3.9l-8.1,8.6c-2-2.1-4.1-3.7-6.3-5.1
		c-2.2-1.3-5-2-8.2-2c-2.4,0-4.5,0.5-6.5,1.4c-2,1-3.7,2.2-5.2,3.8c-1.5,1.6-2.6,3.5-3.4,5.7c-0.8,2.2-1.2,4.5-1.2,6.9v0.2
		c0,2.5,0.4,4.8,1.2,7c0.8,2.2,2,4.1,3.5,5.8c1.5,1.6,3.3,2.9,5.3,3.8c2.1,0.9,4.3,1.4,6.8,1.4c3,0,5.7-0.6,8-1.9
		c2.3-1.3,4.5-3,6.6-5l7.8,7.7c-2.8,3.1-5.9,5.7-9.5,7.6C721.7,77.5,717.1,78.5,711.7,78.5z"/>
</g>
</svg>
